<svg xmlns="http://www.w3.org/2000/svg" viewBox="0 0 900 760" role="img" aria-labelledby="title desc">
  <title id="title">UK storage portfolio decision maps</title>
  <desc id="desc">Six maps show offshore reservoirs selected under energy-delivery targets from 5 to 200 terawatt-hours.</desc>
  <rect width="900" height="760" fill="#fff"/>
  <defs>
    <g id="panel">
      <rect width="420" height="188" fill="#dbe9fb" stroke="#555"/>
      <path d="M0 0h125l-6 28-23 17 10 31-13 22 18 22-6 28 22 40H0Z" fill="#f3f3f3" stroke="#555" stroke-width="1.2"/>
      <path d="M78 0c-7 22 1 43-14 56s-4 33 13 39" fill="none" stroke="#777"/>
      <path d="M130 0v188M220 0v188M310 0v188M0 62h420M0 124h420" stroke="#c9d5e4" stroke-width=".6"/>
      <g fill="#a8adb5" opacity=".65">
        <circle cx="270" cy="43" r="2"/><circle cx="285" cy="61" r="2"/><circle cx="300" cy="79" r="2"/>
        <circle cx="316" cy="97" r="2"/><circle cx="330" cy="109" r="2"/><circle cx="347" cy="124" r="2"/>
        <circle cx="363" cy="141" r="2"/><circle cx="380" cy="154" r="2"/><circle cx="396" cy="168" r="2"/>
      </g>
    </g>
  </defs>
  <g transform="translate(20 36)"><use href="#panel"/><g fill="#3d9d63" stroke="#111" stroke-width="2"><circle cx="285" cy="107" r="17"/><circle cx="340" cy="139" r="15"/><circle cx="370" cy="151" r="21"/><circle cx="386" cy="90" r="14"/></g></g>
  <g transform="translate(460 36)"><use href="#panel"/><g fill="#3299c8" stroke="#111" stroke-width="2"><circle cx="268" cy="110" r="17"/><circle cx="325" cy="121" r="13"/><circle cx="350" cy="104" r="20"/><circle cx="382" cy="119" r="15"/></g></g>
  <g transform="translate(20 250)"><use href="#panel"/><g fill="#f29a3a" stroke="#111" stroke-width="2"><circle cx="286" cy="92" r="18"/><circle cx="326" cy="130" r="16"/><circle cx="354" cy="136" r="22"/><circle cx="380" cy="74" r="13"/></g></g>
  <g transform="translate(460 250)"><use href="#panel"/><g fill="#8655ad" stroke="#111" stroke-width="2"><circle cx="282" cy="112" r="20"/><circle cx="330" cy="136" r="17"/><circle cx="353" cy="130" r="22"/><circle cx="382" cy="148" r="15"/></g></g>
  <g transform="translate(20 464)"><use href="#panel"/><g fill="#dc4545" stroke="#111" stroke-width="2"><circle cx="282" cy="99" r="19"/><circle cx="330" cy="127" r="24"/><circle cx="361" cy="135" r="18"/><circle cx="390" cy="146" r="14"/></g></g>
  <g transform="translate(460 464)"><use href="#panel"/><g fill="#9b6657" stroke="#111" stroke-width="2"><circle cx="286" cy="102" r="20"/><circle cx="331" cy="128" r="17"/><circle cx="358" cy="137" r="22"/><circle cx="390" cy="151" r="17"/></g></g>
  <g font-family="Arial,sans-serif" font-size="13" fill="#202020" font-weight="600">
    <text x="275" y="67">5 TWh</text><text x="715" y="67">15 TWh</text>
    <text x="275" y="281">50 TWh</text><text x="715" y="281">100 TWh</text>
    <text x="275" y="495">150 TWh</text><text x="715" y="495">200 TWh</text>
  </g>
  <g transform="translate(148 691)" font-family="Arial,sans-serif" font-size="13" fill="#292929">
    <text x="0" y="0" font-weight="600">Annual delivery target</text>
    <rect x="0" y="15" width="52" height="13" fill="#3d9d63"/><rect x="76" y="15" width="52" height="13" fill="#3299c8"/>
    <rect x="152" y="15" width="52" height="13" fill="#f29a3a"/><rect x="228" y="15" width="52" height="13" fill="#8655ad"/>
    <rect x="304" y="15" width="52" height="13" fill="#dc4545"/><rect x="380" y="15" width="52" height="13" fill="#9b6657"/>
  </g>
</svg>
